# xmcd
#
# Track frame offsets: 
#        150
#        17450
#        35726
#        54415
#        76180
#        95435
#        116456
#        133153
#        144795
#        161586
#        176057
#
# Disc length: 2472 seconds
#
# Revision: 0
# Processed by: cddbd v1.5.2PL0 Copyright (c) Steve Scherf et al.
# Submitted via: ExactAudioCopy v1.0b4
#
DISCID=8509a60b
DTITLE=Mama's Blues Joint - Changes
DYEAR=2014
DGENRE=Contemporary Blues, Blues Soul, Funky Blues
TTITLE0=The Devil In Me
TTITLE1=Dance It Out
TTITLE2=My Favorite Song
TTITLE3=Try Me Baby
TTITLE4=Another Road
TTITLE5=Don't Take Me For Granted
TTITLE6=Why
TTITLE7=Don't Let Me Down
TTITLE8=Break It Down For Me
TTITLE9=I Got Love
TTITLE10=Changes
EXTD=
EXTT0=
EXTT1=
EXTT2=
EXTT3=
EXTT4=
EXTT5=
EXTT6=
EXTT7=
EXTT8=
EXTT9=
EXTT10=
PLAYORDER=
